<?xml version="1.0" standalone="no"?>
<!DOCTYPE svg PUBLIC "-//W3C//DTD SVG 20010904//EN"
 "http://www.w3.org/TR/2001/REC-SVG-20010904/DTD/svg10.dtd">
<svg version="1.0" xmlns="http://www.w3.org/2000/svg"
 width="774.000000pt" height="774.000000pt" viewBox="0 0 774.000000 774.000000"
 preserveAspectRatio="xMidYMid meet">
<metadata>
Created by potrace 1.16, written by Peter Selinger 2001-2019
</metadata>
<g transform="translate(0.000000,774.000000) scale(0.100000,-0.100000)"
fill="#000000" stroke="none">
<path d="M5610 7210 c-25 -4 -67 -11 -95 -15 -58 -10 -100 -32 -184 -98 -61
-47 -181 -196 -181 -224 0 -8 -9 -28 -21 -44 -25 -36 -57 -116 -72 -181 -6
-27 -15 -48 -19 -48 -4 0 -8 -11 -8 -25 0 -27 -2 -27 -90 -5 -19 5 -78 14
-130 21 -52 6 -138 17 -190 24 -219 29 -732 28 -779 -2 -19 -12 -41 -14 -105
-9 -44 4 -83 12 -87 17 -8 13 -606 10 -654 -2 -29 -8 -97 -20 -300 -55 -55 -9
-117 -23 -138 -30 -58 -21 -67 -19 -67 20 0 19 -4 38 -10 41 -5 3 -10 16 -10
29 0 40 -91 242 -120 266 -3 3 -31 39 -62 80 -31 41 -80 93 -108 115 -29 22
-58 46 -65 52 -7 7 -48 23 -92 35 -115 33 -266 30 -388 -6 -105 -32 -235 -95
-337 -164 -142 -97 -242 -192 -403 -387 -22 -26 -47 -55 -55 -63 -8 -9 -14
-17 -12 -19 7 -9 -1 -22 -33 -57 -53 -58 -98 -205 -99 -321 0 -94 6 -153 16
-170 6 -10 30 -89 34 -110 1 -5 3 -13 4 -17 1 -5 3 -11 4 -15 9 -40 19 -68 29
-79 7 -7 23 -29 37 -48 14 -20 28 -36 33 -36 11 0 47 -39 47 -51 0 -5 4 -8 9
-5 5 3 17 -6 27 -19 10 -14 24 -25 31 -25 6 0 13 -4 15 -9 2 -5 39 -34 83 -66
44 -31 80 -60 80 -64 -1 -3 -33 -72 -73 -152 -101 -206 -207 -489 -258 -691
-9 -38 -19 -68 -23 -68 -4 0 -8 -12 -9 -26 -1 -14 -10 -60 -21 -102 -10 -43
-22 -101 -26 -129 -4 -29 -11 -53 -17 -53 -6 0 -8 -11 -6 -25 3 -13 1 -26 -4
-27 -5 -2 -12 -47 -15 -101 -3 -54 -10 -100 -14 -103 -5 -3 -9 -57 -9 -120 0
-63 -3 -113 -8 -110 -8 5 -6 -354 3 -534 31 -589 209 -998 565 -1302 150 -127
387 -265 627 -363 59 -24 95 -44 98 -56 11 -32 132 -227 192 -307 81 -107 204
-233 295 -302 85 -64 236 -144 305 -161 37 -10 52 -22 107 -93 196 -249 311
-312 674 -367 79 -12 497 -11 544 1 18 5 78 20 133 34 55 13 118 32 140 41 69
29 157 99 265 211 113 117 154 154 171 154 24 0 277 133 319 167 59 50 117
108 158 160 18 23 46 56 63 74 16 17 29 33 29 35 0 5 9 17 44 58 14 15 28 37
31 47 4 11 10 19 15 19 4 0 11 11 14 25 4 14 11 25 17 25 5 0 26 34 46 77 44
95 86 138 142 148 22 4 41 11 41 15 0 7 27 20 50 25 24 5 50 18 50 26 0 5 6 9
13 9 6 0 35 11 62 24 65 32 121 56 130 56 10 0 91 58 123 87 15 14 41 35 58
47 17 11 49 33 70 48 58 41 224 204 272 269 58 78 134 205 168 283 16 36 32
66 36 66 5 0 8 8 8 18 0 10 4 22 9 27 4 6 14 33 21 60 8 28 21 68 31 90 30 69
53 213 53 337 1 64 4 114 9 111 4 -2 7 5 7 16 0 12 -3 21 -7 21 -5 0 -8 114
-8 253 -1 348 -9 548 -28 642 -9 44 -25 130 -36 190 -40 231 -113 531 -131
545 -4 3 -17 37 -29 75 -22 71 -26 81 -55 148 -9 21 -16 49 -16 63 0 13 -7 27
-16 31 -9 3 -14 13 -11 24 3 11 2 19 -3 19 -4 0 -11 17 -14 38 -4 20 -22 69
-41 107 -18 39 -42 93 -53 122 l-20 51 36 25 c21 13 61 45 91 70 30 26 57 44
61 42 3 -2 19 12 36 32 16 19 42 49 57 66 29 33 87 137 87 158 0 6 6 25 14 42
38 88 41 104 40 227 -2 142 -10 175 -80 315 -64 127 -113 195 -244 335 -19 21
-55 59 -80 86 -55 60 -106 104 -120 104 -5 0 -10 4 -10 9 0 5 -21 18 -47 29
-27 12 -61 32 -76 46 -40 35 -166 96 -285 137 -62 22 -197 32 -272 19z m-2002
-829 c63 -15 88 -25 105 -45 25 -28 55 -34 63 -12 8 21 77 42 199 61 85 14
145 16 275 12 179 -6 424 -37 483 -62 20 -8 53 -17 74 -19 21 -2 63 -9 93 -16
30 -6 66 -14 79 -16 27 -6 26 -17 -11 -165 l-21 -86 -36 7 c-20 4 -45 11 -56
17 -20 11 -220 52 -287 59 -54 6 -47 -8 17 -33 122 -48 400 -228 582 -378 178
-147 573 -570 557 -597 -3 -4 -1 -7 4 -6 6 2 31 -24 56 -57 25 -33 54 -69 64
-80 11 -11 43 -51 73 -90 123 -160 134 -172 148 -158 10 11 10 20 -3 48 -9 18
-16 40 -16 49 0 9 -4 16 -10 16 -5 0 -10 12 -10 26 0 14 -4 23 -10 19 -6 -3
-10 5 -10 19 0 14 -5 28 -10 31 -15 9 -41 75 -34 86 3 5 1 9 -5 9 -5 0 -13 15
-16 33 -4 17 -12 35 -18 39 -6 3 -12 17 -13 30 -2 12 -4 34 -6 47 -2 15 3 25
12 26 8 2 63 24 122 49 59 25 109 46 112 46 2 0 10 -17 16 -37 7 -21 21 -54
30 -73 29 -55 95 -206 135 -310 21 -52 53 -128 72 -169 19 -41 36 -90 37 -110
1 -20 7 -45 13 -56 33 -60 99 -358 127 -583 14 -111 13 -147 -5 -137 -4 3 -28
-3 -51 -13 -24 -10 -56 -24 -73 -30 -53 -19 -337 -89 -435 -107 -52 -10 -100
-20 -106 -22 -13 -5 -39 111 -28 128 3 6 2 21 -3 32 -6 12 -20 43 -32 68 -11
25 -21 52 -21 60 0 22 -113 166 -188 238 -66 65 -170 141 -191 141 -6 0 -18 8
-28 19 -21 21 -174 81 -209 81 -13 0 -38 6 -56 14 -85 36 -320 37 -418 1 -25
-9 -66 -22 -91 -29 -56 -16 -222 -98 -267 -132 -32 -25 -58 -24 -48 2 6 15
-23 115 -35 124 -4 3 -10 23 -14 45 -3 22 -10 49 -15 60 -27 59 -55 215 -58
323 -2 45 -5 52 -22 52 -24 0 -22 27 -22 -458 0 -203 -3 -340 -9 -336 -5 3 -9
-4 -9 -16 0 -11 -17 -44 -38 -73 -64 -87 -141 -287 -142 -364 0 -13 -3 -23 -7
-23 -23 1 -96 28 -102 38 -9 15 -221 9 -263 -7 -33 -12 -34 -11 -43 59 -7 58
-127 314 -166 356 -19 20 -20 38 -23 260 -5 331 -17 553 -30 562 -27 16 -31 7
-31 -72 -1 -56 -7 -102 -23 -150 -12 -37 -24 -78 -27 -90 -2 -11 -9 -43 -16
-71 -6 -27 -17 -64 -25 -82 -8 -17 -14 -39 -14 -50 -1 -10 -9 -35 -19 -56 -15
-33 -19 -36 -31 -23 -7 9 -20 16 -29 16 -9 0 -24 9 -34 20 -10 12 -22 18 -27
15 -6 -3 -10 -2 -10 3 0 10 -95 54 -124 57 -10 1 -21 6 -25 11 -17 24 -139 46
-326 59 -84 6 -97 4 -200 -29 -60 -20 -134 -43 -162 -52 -29 -10 -53 -21 -53
-26 0 -5 -4 -7 -8 -4 -12 7 -118 -59 -156 -97 -17 -17 -62 -59 -100 -92 -69
-61 -131 -145 -181 -245 -15 -30 -31 -57 -35 -60 -14 -10 -60 -120 -72 -170
-9 -40 -15 -49 -27 -45 -16 6 -121 31 -173 42 -16 3 -28 10 -28 15 0 5 -10 6
-21 3 -16 -5 -19 -4 -14 6 6 9 2 11 -13 7 -12 -4 -22 -3 -22 2 0 10 -53 23
-105 26 -42 2 -178 38 -207 54 -10 6 -23 10 -29 10 -6 0 -18 7 -26 16 -21 20
-14 123 21 324 71 405 213 834 371 1116 l35 62 138 -65 c75 -36 138 -67 140
-68 2 -2 -3 -14 -12 -27 -36 -56 -176 -415 -176 -454 0 -2 66 80 147 183 196
252 369 456 495 583 99 101 230 220 274 250 12 8 55 40 95 71 41 30 94 68 119
83 25 15 79 49 120 76 41 27 102 63 135 80 32 17 64 35 70 39 5 5 27 14 48 20
35 12 48 33 28 45 -5 3 -62 -8 -127 -25 -66 -17 -136 -30 -157 -30 -21 0 -35
-4 -32 -10 4 -5 -4 -10 -17 -10 -32 -2 -40 -3 -67 -13 -29 -10 -41 5 -41 54 0
19 -4 51 -9 70 -11 38 -22 110 -18 110 3 0 104 18 142 25 17 3 64 12 105 20
41 8 111 19 155 26 44 6 110 17 147 25 37 8 73 12 80 9 7 -3 27 -1 43 4 57 18
323 12 413 -8z m1462 -2155 c83 -15 183 -50 204 -71 7 -8 25 -17 39 -20 15 -4
38 -18 52 -31 14 -13 30 -24 36 -24 19 0 171 -161 165 -175 -3 -9 3 -19 15
-25 31 -17 105 -184 125 -280 21 -105 15 -253 -16 -358 -74 -262 -281 -468
-547 -544 -101 -30 -303 -32 -402 -4 -261 71 -468 268 -555 526 -9 25 -21 91
-27 147 -30 250 57 485 245 660 180 169 426 242 666 199z m-2322 -9 c15 -8 53
-19 84 -26 31 -7 73 -23 93 -37 20 -13 40 -24 45 -24 6 0 10 -5 10 -11 0 -5 5
-7 10 -4 6 3 10 1 10 -5 0 -6 4 -9 9 -6 15 10 100 -65 156 -138 30 -40 55 -77
55 -82 0 -5 11 -22 25 -38 14 -16 25 -35 25 -43 0 -8 11 -31 25 -51 57 -84 86
-254 66 -395 -45 -321 -270 -577 -582 -663 -98 -27 -300 -25 -402 4 -268 76
-472 281 -549 549 -18 63 -23 103 -23 208 0 155 15 218 82 355 39 79 62 109
133 180 105 104 97 98 200 141 113 48 195 74 285 93 51 10 218 5 243 -7z
m-1488 -750 l344 -93 12 -76 c33 -212 131 -396 296 -554 78 -75 226 -175 300
-203 15 -5 29 -14 32 -19 3 -5 23 -13 43 -17 21 -3 58 -16 83 -28 37 -18 67
-23 162 -25 140 -4 250 15 353 63 38 18 87 38 107 44 21 7 40 17 43 22 4 5 15
9 26 9 10 0 19 5 19 12 0 6 3 9 6 6 3 -4 14 2 25 13 10 10 26 19 34 19 8 0 15
4 15 10 0 5 15 17 33 25 17 8 24 13 14 10 -10 -3 -15 -1 -12 5 3 6 14 10 24
10 17 0 61 42 61 59 0 5 3 11 8 13 16 7 113 138 151 204 45 79 94 218 111 316
l12 68 65 20 c84 26 182 26 266 0 l65 -20 12 -73 c64 -382 359 -694 747 -789
130 -31 323 -29 454 5 180 47 310 120 447 251 154 147 252 333 284 538 11 68
15 78 30 75 10 -3 18 -2 18 1 0 4 14 8 31 9 17 1 37 7 43 12 16 13 119 41 174
47 24 2 50 11 59 19 8 8 25 15 38 15 13 0 34 4 47 9 61 24 166 54 213 60 53 7
53 7 57 -21 3 -15 1 -28 -4 -28 -5 0 -6 -5 -2 -11 20 -33 7 -369 -22 -549 -30
-193 -92 -378 -165 -488 -18 -29 -39 -50 -46 -48 -7 3 -10 -1 -6 -11 7 -18 -1
-26 -194 -214 -26 -25 -46 -38 -54 -33 -8 4 -10 3 -5 -4 7 -12 -106 -90 -171
-117 -20 -9 -40 -19 -43 -23 -3 -5 -26 -16 -53 -26 -26 -10 -54 -24 -61 -32
-8 -8 -19 -14 -25 -14 -6 0 -19 -4 -29 -9 -39 -22 -86 -41 -98 -41 -7 0 -14
-6 -17 -12 -2 -7 -7 22 -11 64 -4 43 -12 80 -17 83 -4 3 -6 19 -2 35 3 17 0
36 -6 44 -9 11 -9 19 1 36 10 15 10 23 2 28 -7 4 -14 30 -17 57 -6 69 -29 148
-45 153 -9 3 -12 -7 -11 -35 1 -21 -5 -63 -14 -93 -8 -30 -21 -92 -27 -138
-13 -93 -18 -114 -30 -107 -5 3 -12 -9 -15 -27 -4 -18 -19 -58 -33 -88 -13
-30 -33 -79 -44 -110 -10 -30 -36 -85 -58 -122 -22 -36 -40 -71 -40 -77 0 -6
-13 -23 -30 -38 -16 -14 -30 -30 -30 -34 0 -24 -173 -229 -193 -229 -8 0 -37
-23 -86 -68 -19 -17 -39 -32 -45 -32 -5 0 -24 -11 -43 -26 -18 -14 -33 -22
-33 -18 0 4 -8 0 -18 -9 -15 -14 -62 -37 -87 -42 -5 -2 -50 -16 -100 -33 -169
-56 -336 -85 -500 -86 -60 0 -126 3 -145 6 -19 4 -38 7 -42 7 -14 2 -28 78
-28 157 0 65 3 83 16 88 9 3 58 6 110 6 52 0 102 4 112 9 9 5 55 19 102 32
102 27 123 37 222 105 106 73 182 155 204 221 16 47 17 63 7 145 -10 80 -19
107 -63 194 -29 56 -63 113 -76 127 -13 14 -24 32 -24 39 -1 20 -27 51 -38 44
-6 -4 -8 3 -4 16 4 19 3 21 -9 11 -11 -9 -14 -31 -12 -85 4 -104 -4 -154 -32
-186 -42 -46 -44 -50 -38 -56 4 -3 -1 -6 -10 -6 -9 0 -17 -4 -17 -8 0 -7 -26
-20 -100 -47 -20 -8 -74 -19 -120 -25 -47 -6 -88 -17 -92 -23 -5 -9 -67 -12
-215 -12 -227 1 -336 8 -340 22 -2 5 -19 7 -38 5 -23 -3 -47 3 -71 17 -20 12
-56 24 -80 28 -43 6 -86 39 -136 104 -28 37 -42 124 -29 187 14 71 14 77 -4
62 -8 -6 -18 -9 -23 -6 -6 3 -12 -4 -16 -17 -3 -12 -23 -40 -44 -62 -42 -45
-80 -120 -119 -235 -31 -93 -29 -190 6 -238 11 -17 21 -38 21 -48 0 -10 36
-53 80 -96 59 -57 100 -87 156 -114 124 -59 337 -114 440 -114 l56 0 -6 -78
c-9 -134 -8 -130 -51 -159 -40 -28 -41 -28 -200 -27 -172 1 -283 18 -441 69
-486 158 -818 580 -943 1198 l-28 141 -12 -66 c-15 -87 -32 -316 -30 -393 1
-47 -1 -59 -12 -57 -38 8 -345 167 -422 219 -386 260 -553 573 -596 1122 -13
155 -15 391 -3 391 4 0 162 -42 352 -93z m2589 -2794 c64 -12 143 -17 303 -17
120 -1 218 -5 218 -9 0 -5 -24 -32 -53 -62 -59 -58 -111 -80 -257 -106 -81
-15 -442 -19 -545 -7 -152 18 -267 66 -324 135 l-31 38 222 7 c125 4 251 14
288 22 87 18 81 18 179 -1z"/>
<path d="M4830 4080 c-191 -34 -368 -163 -458 -336 -58 -112 -76 -195 -68
-314 10 -174 65 -299 186 -421 157 -159 383 -223 594 -169 128 32 200 73 291
164 127 126 181 243 192 412 25 402 -341 733 -737 664z m223 -145 c32 -8 77
-24 100 -36 49 -25 147 -98 147 -110 0 -4 -29 3 -64 16 -152 57 -278 54 -414
-10 -188 -89 -304 -304 -272 -507 10 -68 42 -161 63 -187 27 -32 -31 9 -62 44
-66 75 -111 205 -110 315 1 218 165 423 377 474 76 19 165 19 235 1z"/>
<path d="M2465 4096 c-87 -19 -191 -64 -225 -97 -16 -16 -32 -29 -37 -29 -4 0
-14 -9 -21 -20 -7 -11 -18 -20 -25 -20 -14 0 -87 -75 -87 -89 0 -4 -9 -16 -20
-26 -11 -10 -18 -21 -15 -23 3 -3 -1 -15 -9 -26 -35 -54 -68 -183 -77 -300 -9
-126 -3 -179 27 -224 10 -15 31 -54 48 -87 41 -84 180 -221 266 -263 257 -126
543 -80 740 117 121 122 169 232 191 443 10 95 9 110 -10 174 -11 39 -32 91
-45 115 -13 24 -34 64 -47 88 -31 56 -112 135 -169 163 -25 13 -47 25 -50 28
-25 26 -159 74 -220 79 -101 9 -165 8 -215 -3z m205 -156 c82 -13 175 -58 237
-115 54 -50 54 -50 -72 -4 -121 44 -294 24 -406 -46 -21 -14 -44 -25 -50 -25
-13 0 -37 -27 -90 -102 -51 -74 -73 -126 -92 -219 -15 -71 -15 -81 3 -163 11
-48 33 -112 49 -142 16 -30 25 -54 20 -54 -16 0 -107 118 -133 173 -36 78 -49
147 -44 241 11 181 111 332 276 415 93 47 183 59 302 41z"/>
</g>
</svg>
